<!-- Graphic -->
<svg xmlns="http://www.w3.org/2000/svg" xmlns:xlink="http://www.w3.org/1999/xlink" width="98" height="29">
  <g transform="translate(2.26 1.318)">
    <path d="M 0.278 14.021 L 0.278 14.769 L 0.278 16.266 L 0.278 19.258 L 0.278 22.25 L 0.278 23.746 L 0.278 24.494 C 0.278 24.494 0.559 25.249 0.99 25.26 C 1.422 25.271 2.005 25.286 2.609 25.301 C 3.818 25.331 5.113 25.362 5.459 25.367 C 8.227 25.409 11.351 25.409 12.774 25.242 C 15.557 24.915 16.929 23.684 17.336 23.265 C 17.967 22.618 19.1 20.934 19.232 19.105 C 19.284 18.388 19.295 15.795 18.066 14.409 C 17.281 13.524 15.845 12.804 15.845 12.804 C 15.845 12.804 16.971 12.064 17.766 11.021 C 18.151 10.513 18.908 8.81 18.849 7.105 C 18.824 6.372 19.372 3.113 14.791 1.84 C 14.607 1.788 14.094 1.728 13.403 1.666 C 13.058 1.635 9.776 4.536 6.582 7.446 C 4.984 8.901 3.408 10.358 2.232 11.451 C 1.644 11.997 1.155 12.453 0.814 12.772 C 0.473 13.091 0.278 14.021 0.278 14.021 Z" fill="rgba(0,0,0,0)" stroke-width="3.14" stroke="#00A2FF" stroke-linecap="round" stroke-miterlimit="10"></path>
    <path d="M 0 0.899 L 0 3.039 L 0 7.972 C 0 7.972 9.458 0.015 8.643 0.007 C 7.013 -0.009 2.744 0.005 1.613 0.019 C 0.483 0.032 0 0.899 0 0.899 Z" fill="rgba(0,0,0,0)" stroke-width="2.5" stroke="#00A2FF" stroke-linecap="round" stroke-linejoin="round"></path>
  </g>
  <g>
    <defs>
      <path d="M 38.345 1.663 C 44.965 1.663 50.332 7.363 50.332 14.395 C 50.332 21.427 44.965 27.127 38.345 27.127 C 31.724 27.127 26.357 21.427 26.357 14.395 C 26.357 7.363 31.724 1.663 38.345 1.663 Z" id="a1004z"></path>
      <clipPath id="a1005z">
        <use xlink:href="#a1004z"></use>
      </clipPath>
    </defs>
    <use xlink:href="#a1004z" fill="transparent" clip-path="url(#a1005z)" stroke-width="7" stroke="#00A2FF"></use>
  </g>
  <g>
    <defs>
      <path d="M 66.049 1.663 C 72.669 1.663 78.036 7.363 78.036 14.395 C 78.036 21.427 72.669 27.127 66.049 27.127 C 59.428 27.127 54.061 21.427 54.061 14.395 C 54.061 7.363 59.428 1.663 66.049 1.663 Z" id="a1006z"></path>
      <clipPath id="a1007z">
        <use xlink:href="#a1006z"></use>
      </clipPath>
    </defs>
    <use xlink:href="#a1006z" fill="transparent" clip-path="url(#a1007z)" stroke-width="7" stroke="#00A2FF"></use>
  </g>
  <path d="M 93.487 19.684 C 93.487 21.744 91.817 23.413 89.757 23.413 C 87.697 23.413 86.028 21.744 86.028 19.684 L 86.028 18.639 C 86.028 17.76 85.315 17.047 84.436 17.047 L 83.89 17.047 C 83.011 17.047 82.298 17.76 82.298 18.639 L 82.298 19.668 C 82.298 23.788 85.638 27.127 89.757 27.127 C 93.877 27.127 97.216 23.788 97.216 19.668 L 97.216 3.263 C 97.216 2.379 96.5 1.663 95.616 1.663 L 95.087 1.663 C 94.203 1.663 93.487 2.379 93.487 3.263 Z" fill="#00A2FF"></path>
</svg>