<svg xmlns="http://www.w3.org/2000/svg" xmlns:xlink="http://www.w3.org/1999/xlink" width="282" height="208"><path d="M 34.558 99.855 C 34.558 44.707 79.138 0 134.13 0 C 189.123 0 233.703 44.707 233.703 99.855 C 233.703 155.003 189.123 199.71 134.13 199.71 C 79.138 199.71 34.558 155.003 34.558 99.855 Z" fill="#E0F6FF"></path><g><defs><path d="M 39.996 57.932 C 38.485 53.78 40.626 49.189 44.777 47.678 L 131.229 16.212 C 135.381 14.701 139.972 16.842 141.483 20.994 L 177.053 118.722 C 178.564 122.874 176.423 127.464 172.272 128.975 L 85.82 160.441 C 81.668 161.952 77.077 159.812 75.566 155.66 Z" id="a1290z"></path><filter id="a1292z" x="-7.4%" y="-8.3%" width="114.7%" height="116.6%" filterUnits="objectBoundingBox"><feOffset dx="0" dy="2" in="SourceAlpha" result="a1294z"></feOffset><feGaussianBlur stdDeviation="2.5" in="a1294z" result="a1295z"></feGaussianBlur><feColorMatrix color-interpolation-filters="sRGB" values="0 0 0 0 0.471   0 0 0 0 0.753   0 0 0 0 0.788  0 0 0 1 0" type="matrix" in="a1295z" result="a1296z"></feColorMatrix></filter></defs><g filter="url(#a1292z)"><use fill="black" fill-opacity="1" stroke="black" stroke-opacity="0" stroke-width="0" xlink:href="#a1290z" clip-path="url(#a1291z)"></use></g><use xlink:href="#a1290z" fill="#C2F8FF" clip-path="url(#a1291z)"></use></g><g><defs><path d="M 126.566 16.994 C 128.077 12.842 132.668 10.701 136.82 12.212 L 223.272 43.678 C 227.423 45.189 229.564 49.78 228.053 53.932 L 177.434 193.006 C 175.923 197.158 171.332 199.299 167.18 197.788 L 80.728 166.322 C 76.577 164.811 74.436 160.22 75.947 156.068 Z" id="a1297z"></path><filter id="a1299z" x="-6.7%" y="-6.5%" width="113.3%" height="113.0%" filterUnits="objectBoundingBox"><feOffset dx="0" dy="2" in="SourceAlpha" result="a1301z"></feOffset><feGaussianBlur stdDeviation="2.5" in="a1301z" result="a1302z"></feGaussianBlur><feColorMatrix color-interpolation-filters="sRGB" values="0 0 0 0 0.471   0 0 0 0 0.753   0 0 0 0 0.788  0 0 0 1 0" type="matrix" in="a1302z" result="a1303z"></feColorMatrix></filter></defs><g filter="url(#a1299z)"><use fill="black" fill-opacity="1" stroke="black" stroke-opacity="0" stroke-width="0" xlink:href="#a1297z" clip-path="url(#a1298z)"></use></g><use xlink:href="#a1297z" fill="hsl(187, 100%, 88%)" clip-path="url(#a1298z)"></use></g><g transform="translate(1.458 11.935)"><path d="M 0 2 L 5.5 1.5 L 10.5 0 C 10.5 0 10.125 1.375 10.5 2.5 C 10.875 3.625 12 4.5 12 4.5 C 12 4.5 9.25 4.375 6.5 5 C 3.75 5.625 1 7 1 7 C 1 7 1.25 5.75 1 4.5 C 0.75 3.25 0 2 0 2 Z" transform="translate(5.042 48.065) rotate(-114 6 3.5)" fill="hsl(202, 100%, 84%)"></path><path d="M 0 2 L 5.5 1.5 L 10.5 0 C 10.5 0 10.125 1.375 10.5 2.5 C 10.875 3.625 12 4.5 12 4.5 C 12 4.5 9.25 4.375 6.5 5 C 3.75 5.625 1 7 1 7 C 1 7 1.25 5.75 1 4.5 C 0.75 3.25 0 2 0 2 Z" transform="translate(178.542 163.065) rotate(-183 6 3.5)" fill="hsl(202, 100%, 84%)"></path><path d="M 0 2 L 5.5 1.5 L 10.5 0 C 10.5 0 10.125 1.375 10.5 2.5 C 10.875 3.625 12 4.5 12 4.5 C 12 4.5 9.25 4.375 6.5 5 C 3.75 5.625 1 7 1 7 C 1 7 1.25 5.75 1 4.5 C 0.75 3.25 0 2 0 2 Z" transform="translate(149.542 130.065) rotate(-114 6 3.5)" fill="hsl(202, 100%, 84%)"></path><path d="M 0 2 L 5.5 1.5 L 10.5 0 C 10.5 0 10.125 1.375 10.5 2.5 C 10.875 3.625 12 4.5 12 4.5 C 12 4.5 9.25 4.375 6.5 5 C 3.75 5.625 1 7 1 7 C 1 7 1.25 5.75 1 4.5 C 0.75 3.25 0 2 0 2 Z" transform="translate(150.542 41.065) rotate(-77 6 3.5)" fill="hsl(202, 100%, 84%)"></path><path d="M 0 2 L 5.5 1.5 L 10.5 0 C 10.5 0 10.125 1.375 10.5 2.5 C 10.875 3.625 12 4.5 12 4.5 C 12 4.5 9.25 4.375 6.5 5 C 3.75 5.625 1 7 1 7 C 1 7 1.25 5.75 1 4.5 C 0.75 3.25 0 2 0 2 Z" transform="translate(245.542 107.065) rotate(-79 6 3.5)" fill="hsl(202, 100%, 84%)"></path><path d="M 0 2 L 5.5 1.5 L 10.5 0 C 10.5 0 10.125 1.375 10.5 2.5 C 10.875 3.625 12 4.5 12 4.5 C 12 4.5 9.25 4.375 6.5 5 C 3.75 5.625 1 7 1 7 C 1 7 1.25 5.75 1 4.5 C 0.75 3.25 0 2 0 2 Z" transform="translate(229.542 56.065) rotate(-31 6 3.5)" fill="hsl(202, 100%, 84%)"></path><path d="M 0 2 L 5.5 1.5 L 10.5 0 C 10.5 0 10.125 1.375 10.5 2.5 C 10.875 3.625 12 4.5 12 4.5 C 12 4.5 9.25 4.375 6.5 5 C 3.75 5.625 1 7 1 7 C 1 7 1.25 5.75 1 4.5 C 0.75 3.25 0 2 0 2 Z" transform="translate(248.542 48.065) rotate(-41 6 3.5)" fill="hsl(16, 100%, 81%)"></path><path d="M 0 2 L 5.5 1.5 L 10.5 0 C 10.5 0 10.125 1.375 10.5 2.5 C 10.875 3.625 12 4.5 12 4.5 C 12 4.5 9.25 4.375 6.5 5 C 3.75 5.625 1 7 1 7 C 1 7 1.25 5.75 1 4.5 C 0.75 3.25 0 2 0 2 Z" transform="translate(42.542 107.065) rotate(-41 6 3.5)" fill="hsl(16, 100%, 81%)"></path><path d="M 0 2 L 5.5 1.5 L 10.5 0 C 10.5 0 10.125 1.375 10.5 2.5 C 10.875 3.625 12 4.5 12 4.5 C 12 4.5 9.25 4.375 6.5 5 C 3.75 5.625 1 7 1 7 C 1 7 1.25 5.75 1 4.5 C 0.75 3.25 0 2 0 2 Z" transform="translate(155.542 62.065) rotate(-41 6 3.5)" fill="hsl(16, 100%, 81%)"></path><path d="M 0 2 L 5.5 1.5 L 10.5 0 C 10.5 0 10.125 1.375 10.5 2.5 C 10.875 3.625 12 4.5 12 4.5 C 12 4.5 9.25 4.375 6.5 5 C 3.75 5.625 1 7 1 7 C 1 7 1.25 5.75 1 4.5 C 0.75 3.25 0 2 0 2 Z" transform="translate(184.542 2.065) rotate(-173 6 3.5)" fill="hsl(16, 100%, 81%)"></path><path d="M 0 2 L 5.5 1.5 L 10.5 0 C 10.5 0 10.125 1.375 10.5 2.5 C 10.875 3.625 12 4.5 12 4.5 C 12 4.5 9.25 4.375 6.5 5 C 3.75 5.625 1 7 1 7 C 1 7 1.25 5.75 1 4.5 C 0.75 3.25 0 2 0 2 Z" transform="translate(85.542 174.065) rotate(-124 6 3.5)" fill="hsl(16, 100%, 81%)"></path><path d="M 0 2 L 5.5 1.5 L 10.5 0 C 10.5 0 10.125 1.375 10.5 2.5 C 10.875 3.625 12 4.5 12 4.5 C 12 4.5 9.25 4.375 6.5 5 C 3.75 5.625 1 7 1 7 C 1 7 1.25 5.75 1 4.5 C 0.75 3.25 0 2 0 2 Z" transform="translate(99.542 48.065) rotate(-46 6 3.5)" fill="hsl(16, 100%, 81%)"></path><path d="M 0 2 L 5.5 1.5 L 10.5 0 C 10.5 0 10.125 1.375 10.5 2.5 C 10.875 3.625 12 4.5 12 4.5 C 12 4.5 9.25 4.375 6.5 5 C 3.75 5.625 1 7 1 7 C 1 7 1.25 5.75 1 4.5 C 0.75 3.25 0 2 0 2 Z" transform="translate(26.542 54.065) rotate(20 6 3.5)" fill="hsl(16, 100%, 81%)"></path><path d="M 5.686 0.142 C 7.816 -0.469 8.749 1.057 8.882 1.606 C 9.148 2.705 8.882 3.559 8.882 3.559 C 8.882 3.559 6.929 3.437 4.976 4.047 C 3.023 4.657 1.07 6 1.07 6 C 1.07 6 0.183 4.291 0.005 3.071 C -0.083 2.461 0.959 3.086 2.136 2.583 C 3.312 2.079 4.621 0.447 5.686 0.142 Z" transform="translate(137.304 19.74) rotate(108 4.5 3)" fill="hsl(257, 100%, 86%)"></path><path d="M 5.686 0.142 C 7.816 -0.469 8.749 1.057 8.882 1.606 C 9.148 2.705 8.882 3.559 8.882 3.559 C 8.882 3.559 6.929 3.437 4.976 4.047 C 3.023 4.657 1.07 6 1.07 6 C 1.07 6 0.183 4.291 0.005 3.071 C -0.083 2.461 0.959 3.086 2.136 2.583 C 3.312 2.079 4.621 0.447 5.686 0.142 Z" transform="translate(133.542 94.065) rotate(108 4.5 3)" fill="hsl(257, 100%, 86%)"></path><path d="M 8.007 0.145 C 11.007 -0.48 12.32 1.083 12.507 1.645 C 12.882 2.77 12.507 3.645 12.507 3.645 C 12.507 3.645 9.757 3.52 7.007 4.145 C 4.257 4.77 1.507 6.145 1.507 6.145 C 1.507 6.145 0.257 4.395 0.007 3.145 C -0.118 2.52 1.351 3.161 3.007 2.645 C 4.664 2.129 6.507 0.458 8.007 0.145 Z" transform="translate(36.542 165.065) rotate(64 6.337 3.073)" fill="hsl(257, 100%, 86%)"></path><path d="M 8.007 0.145 C 11.007 -0.48 12.32 1.083 12.507 1.645 C 12.882 2.77 12.507 3.645 12.507 3.645 C 12.507 3.645 9.757 3.52 7.007 4.145 C 4.257 4.77 1.507 6.145 1.507 6.145 C 1.507 6.145 0.257 4.395 0.007 3.145 C -0.118 2.52 1.351 3.161 3.007 2.645 C 4.664 2.129 6.507 0.458 8.007 0.145 Z" transform="translate(-1.458 80.065) rotate(64 6.337 3.073)" fill="hsl(257, 100%, 86%)"></path><path d="M 8.007 0.145 C 11.007 -0.48 12.32 1.083 12.507 1.645 C 12.882 2.77 12.507 3.645 12.507 3.645 C 12.507 3.645 9.757 3.52 7.007 4.145 C 4.257 4.77 1.507 6.145 1.507 6.145 C 1.507 6.145 0.257 4.395 0.007 3.145 C -0.118 2.52 1.351 3.161 3.007 2.645 C 4.664 2.129 6.507 0.458 8.007 0.145 Z" transform="translate(210.542 120.065) rotate(147 6.337 3.073)" fill="hsl(257, 100%, 86%)"></path><path d="M 64.042 36.565 C 66.389 36.565 66.042 38.513 66.042 39.065 C 66.042 40.17 65.736 40.565 61.042 40.565 C 56.347 40.565 55.542 39.67 55.542 38.565 C 55.542 38.013 56.493 37.513 58.031 37.151 C 59.628 37.961 61.694 36.565 64.042 36.565 Z" fill="hsl(203, 76%, 63%)"></path><path d="M 8.5 0 C 10.847 0 10.5 1.948 10.5 2.5 C 10.5 3.605 10.194 4 5.5 4 C 0.806 4 0 3.105 0 2 C 0 1.448 0.951 0.948 2.49 0.586 C 4.087 1.396 6.153 0 8.5 0 Z" transform="translate(218.542 144.065) rotate(80 5.259 2)" fill="hsl(203, 76%, 63%)"></path><path d="M 8.5 0 C 10.847 0 10.5 1.948 10.5 2.5 C 10.5 3.605 10.194 4 5.5 4 C 0.806 4 0 3.105 0 2 C 0 1.448 0.951 0.948 2.49 0.586 C 3.288 0.991 5.214 0.597 5.214 0.597 C 5.214 0.597 7.326 0 8.5 0 Z" transform="translate(207.542 30.065) rotate(106 5.259 2)" fill="hsl(53, 96%, 74%)"></path><path d="M 8.5 0 C 10.847 0 10.5 1.948 10.5 2.5 C 10.5 3.605 10.194 4 5.5 4 C 0.806 4 0 3.105 0 2 C 0 1.448 0.951 0.948 2.49 0.586 C 3.288 0.991 5.214 0.597 5.214 0.597 C 5.214 0.597 7.326 0 8.5 0 Z" transform="translate(102.542 2.065) rotate(137 5.259 2)" fill="hsl(53, 96%, 74%)"></path><path d="M 8.5 0 C 10.847 0 10.5 1.948 10.5 2.5 C 10.5 3.605 10.194 4 5.5 4 C 0.806 4 0 3.105 0 2 C 0 1.448 0.951 0.948 2.49 0.586 C 4.087 1.396 6.153 0 8.5 0 Z" transform="translate(52.542 137.065) rotate(82 5.259 2)" fill="hsl(53, 96%, 74%)"></path><path d="M 8.5 0 C 10.847 0 10.5 1.948 10.5 2.5 C 10.5 3.605 10.194 4 5.5 4 C 0.806 4 0 3.105 0 2 C 0 1.448 0.951 0.948 2.49 0.586 C 4.087 1.396 6.153 0 8.5 0 Z" transform="translate(67.542 77.065) rotate(59 5.259 2)" fill="hsl(53, 96%, 74%)"></path><path d="M 179.542 144.065 C 181.542 143.065 187.542 144.065 187.542 144.065 C 187.542 144.065 186.542 145.065 186.542 146.065 C 186.542 146.565 186.917 147.065 186.542 147.565 C 186.167 148.065 185.042 148.565 185.042 148.565 L 179.542 148.065 C 179.542 148.065 177.542 145.065 179.542 144.065 Z" fill="hsl(343, 100%, 82%)"></path><path d="M 11.431 133.51 C 13.431 132.51 19.431 133.51 19.431 133.51 C 19.431 133.51 18.431 134.51 18.431 135.51 C 18.431 136.01 18.806 136.51 18.431 137.01 C 18.056 137.51 16.931 138.01 16.931 138.01 L 11.431 137.51 C 11.431 137.51 9.431 134.51 11.431 133.51 Z" fill="hsl(343, 100%, 82%)"></path><path d="M 91.431 133.51 C 93.431 132.51 99.431 133.51 99.431 133.51 C 99.431 133.51 98.431 134.51 98.431 135.51 C 98.431 136.01 98.806 136.51 98.431 137.01 C 98.056 137.51 96.931 138.01 96.931 138.01 L 91.431 137.51 C 91.431 137.51 89.431 134.51 91.431 133.51 Z" fill="hsl(343, 100%, 82%)"></path><path d="M 0.889 0.444 C 2.889 -0.556 8.889 0.444 8.889 0.444 C 8.889 0.444 7.889 1.444 7.889 2.444 C 7.889 2.944 8.264 3.444 7.889 3.944 C 7.514 4.444 6.389 4.944 6.389 4.944 L 0.889 4.444 C 0.889 4.444 -1.111 1.444 0.889 0.444 Z" transform="translate(271.542 82.065) rotate(-61 4.444 2.472)" fill="hsl(343, 100%, 82%)"></path><path d="M 0.889 0.444 C 2.889 -0.556 8.889 0.444 8.889 0.444 C 8.889 0.444 7.889 1.444 7.889 2.444 C 7.889 2.944 8.264 3.444 7.889 3.944 C 7.514 4.444 6.389 4.944 6.389 4.944 L 0.889 4.444 C 0.889 4.444 -1.111 1.444 0.889 0.444 Z" transform="translate(67.542 8.065) rotate(-61 4.444 2.472)" fill="hsl(343, 100%, 82%)"></path><path d="M 215.542 164.065 C 217.199 164.065 218.542 164.059 218.542 165.593 C 218.542 167.127 217.199 167.815 215.542 167.815 C 213.885 167.815 212.542 167.127 212.542 165.593 C 212.542 164.059 213.885 164.065 215.542 164.065 Z" fill="hsl(5, 96%, 75%)"></path><path d="M 113.542 75.065 C 115.199 75.065 116.542 75.059 116.542 76.593 C 116.542 78.127 115.199 78.815 113.542 78.815 C 111.885 78.815 110.542 78.127 110.542 76.593 C 110.542 75.059 111.885 75.065 113.542 75.065 Z" fill="hsl(5, 96%, 75%)"></path><path d="M 237.542 93.065 C 239.199 93.065 240.542 93.059 240.542 94.593 C 240.542 96.127 239.199 96.815 237.542 96.815 C 235.885 96.815 234.542 96.127 234.542 94.593 C 234.542 93.059 235.885 93.065 237.542 93.065 Z" fill="hsl(5, 96%, 75%)"></path><path d="M 3 0 C 4.657 0 6 -0.006 6 1.528 C 6 3.062 4.657 3.75 3 3.75 C 1.343 3.75 0 3.062 0 1.528 C 0 -0.006 1.343 0 3 0 Z" transform="translate(16.542 100.065) rotate(67 3 1.875)" fill="hsl(5, 96%, 75%)"></path><path d="M 142.542 9.389 C 142.542 7.553 144.028 6.065 145.862 6.065 C 147.695 6.065 149.182 7.553 149.182 9.389 C 149.182 11.225 147.695 12.714 145.862 12.714 C 144.028 12.714 142.542 11.225 142.542 9.389 Z" fill="rgb(245,95,68)" opacity="0.5"></path><path d="M 221.542 50.389 C 221.542 48.553 223.028 47.065 224.862 47.065 C 226.695 47.065 228.182 48.553 228.182 50.389 C 228.182 52.225 226.695 53.714 224.862 53.714 C 223.028 53.714 221.542 52.225 221.542 50.389 Z" fill="rgb(71,230,177)" opacity="0.5"></path><path d="M 27.542 26.389 C 27.542 24.553 29.028 23.065 30.862 23.065 C 32.695 23.065 34.182 24.553 34.182 26.389 C 34.182 28.225 32.695 29.714 30.862 29.714 C 29.028 29.714 27.542 28.225 27.542 26.389 Z" fill="rgb(71,230,177)" opacity="0.5"></path><path d="M 116.542 130.389 C 116.542 128.553 118.028 127.065 119.862 127.065 C 121.695 127.065 123.182 128.553 123.182 130.389 C 123.182 132.225 121.695 133.714 119.862 133.714 C 118.028 133.714 116.542 132.225 116.542 130.389 Z" fill="rgb(71,230,177)" opacity="0.5"></path></g></svg>