<!-- Graphic -->
<svg xmlns="http://www.w3.org/2000/svg" width="282" height="126">
  <path d="M 0 2.538 L 5.284 1.902 L 10.089 0 C 10.089 0 9.728 1.743 10.088 3.169 C 10.448 4.594 11.529 5.703 11.529 5.703 C 11.529 5.703 8.887 5.545 6.244 6.338 C 3.602 7.131 0.959 8.874 0.959 8.874 C 0.959 8.874 1.2 7.29 0.96 5.706 C 0.72 4.122 0 2.538 0 2.538 Z" transform="translate(1.326 79.62) rotate(-23 5.764 4.437)" fill="hsl(202, 100%, 84%)"></path>
  <path d="M 0 2.537 L 5.284 1.902 L 10.088 0 C 10.088 0 9.728 1.743 10.088 3.169 C 10.448 4.595 11.528 5.703 11.528 5.703 C 11.528 5.703 8.886 5.546 6.244 6.338 C 3.602 7.131 0.96 8.874 0.96 8.874 C 0.96 8.874 1.2 7.29 0.96 5.705 C 0.72 4.121 0 2.537 0 2.537 Z" transform="translate(257.17 31.943) rotate(-14 5.764 4.437)" fill="hsl(202, 100%, 84%)"></path>
  <path d="M 0 2.537 L 5.284 1.902 L 10.088 0 C 10.088 0 9.728 1.743 10.088 3.169 C 10.448 4.595 11.528 5.703 11.528 5.703 C 11.528 5.703 8.886 5.546 6.244 6.338 C 3.602 7.131 0.96 8.874 0.96 8.874 C 0.96 8.874 1.2 7.29 0.96 5.705 C 0.72 4.121 0 2.537 0 2.537 Z" transform="translate(129.472 36.38) rotate(-14 5.764 4.437)" fill="hsl(202, 100%, 84%)"></path>
  <path d="M 0 1.94 L 5.328 1.454 L 10.172 0 C 10.172 0 9.809 1.333 10.172 2.423 C 10.535 3.513 11.625 4.361 11.625 4.361 C 11.625 4.361 8.961 4.24 6.296 4.846 C 3.632 5.452 0.968 6.785 0.968 6.785 C 0.968 6.785 1.21 5.574 0.968 4.362 C 0.726 3.151 0 1.94 0 1.94 Z" transform="translate(194.892 80.563) rotate(-191 5.812 3.393)" fill="hsl(202, 100%, 84%)"></path>
  <path d="M 0 1.936 L 5.329 1.453 L 10.172 0 C 10.172 0 9.809 1.332 10.173 2.423 C 10.536 3.513 11.627 4.361 11.627 4.361 C 11.627 4.361 8.962 4.239 6.298 4.844 C 3.634 5.449 0.97 6.781 0.97 6.781 C 0.97 6.781 1.212 5.57 0.969 4.359 C 0.727 3.147 0 1.936 0 1.936 Z" transform="translate(37.244 11.537) rotate(-153 5.813 3.391)" fill="hsl(202, 100%, 84%)"></path>
  <path d="M 0 1.937 L 5.328 1.453 L 10.172 0 C 10.172 0 9.809 1.332 10.172 2.423 C 10.535 3.513 11.625 4.361 11.625 4.361 C 11.625 4.361 8.961 4.24 6.297 4.845 C 3.633 5.45 0.97 6.782 0.97 6.782 C 0.97 6.782 1.212 5.571 0.969 4.359 C 0.727 3.148 0 1.937 0 1.937 Z" transform="translate(15.074 57.678) rotate(28 5.813 3.391)" fill="hsl(16, 100%, 81%)"></path>
  <path d="M 0 3.045 L 5.286 2.283 L 10.092 0 C 10.092 0 9.731 2.091 10.091 3.801 C 10.451 5.511 11.532 6.841 11.532 6.841 C 11.532 6.841 8.889 6.652 6.246 7.603 C 3.602 8.555 0.958 10.646 0.958 10.646 C 0.958 10.646 1.199 8.746 0.96 6.845 C 0.72 4.945 0 3.045 0 3.045 Z" transform="translate(212.054 10.156) rotate(-54 5.766 5.323)" fill="hsl(16, 100%, 81%)"></path>
  <path d="M 0 3.044 L 5.284 2.282 L 10.088 0 C 10.088 0 9.727 2.091 10.087 3.802 C 10.448 5.513 11.528 6.844 11.528 6.844 C 11.528 6.844 8.886 6.654 6.244 7.606 C 3.602 8.557 0.96 10.649 0.96 10.649 C 0.96 10.649 1.2 8.747 0.96 6.846 C 0.72 4.945 0 3.044 0 3.044 Z" transform="translate(86.019 50.577) rotate(-9 5.764 5.324)" fill="hsl(16, 100%, 81%)"></path>
  <path d="M 7.846 0.252 C 10.786 -0.832 12.071 1.875 12.254 2.85 C 12.621 4.799 12.254 6.315 12.254 6.315 C 12.254 6.315 9.559 6.099 6.865 7.182 C 4.17 8.265 1.476 10.648 1.476 10.648 C 1.476 10.648 0.252 7.616 0.007 5.451 C -0.115 4.368 1.324 5.477 2.947 4.584 C 4.569 3.69 6.377 0.793 7.846 0.252 Z" transform="translate(221.697 40.817) rotate(149 6.209 5.324)" fill="hsl(257, 100%, 86%)"></path>
  <path d="M 6.164 0.126 C 8.474 -0.416 9.484 0.937 9.628 1.425 C 9.917 2.399 9.628 3.157 9.628 3.157 C 9.628 3.157 7.511 3.049 5.394 3.591 C 3.277 4.133 1.16 5.325 1.16 5.325 C 1.16 5.325 0.198 3.809 0.006 2.726 C -0.09 2.185 1.04 2.739 2.315 2.292 C 3.59 1.845 5.01 0.397 6.164 0.126 Z" transform="translate(197.54 114.77) rotate(149 4.878 2.662)" fill="hsl(257, 100%, 86%)"></path>
  <path d="M 6.164 0.126 C 8.474 -0.416 9.484 0.937 9.628 1.425 C 9.917 2.399 9.628 3.157 9.628 3.157 C 9.628 3.157 7.511 3.049 5.394 3.591 C 3.277 4.133 1.16 5.325 1.16 5.325 C 1.16 5.325 0.198 3.809 0.006 2.726 C -0.09 2.185 1.04 2.739 2.315 2.292 C 3.59 1.845 5.01 0.397 6.164 0.126 Z" transform="translate(103.754 19.521) rotate(149 4.878 2.662)" fill="hsl(257, 100%, 86%)"></path>
  <path d="M 7.888 0 C 10.066 -0 9.744 2.159 9.744 2.771 C 9.744 3.996 9.46 4.434 5.104 4.434 C 0.748 4.434 0 3.441 0 2.217 C -0 1.605 0.883 1.051 2.31 0.649 C 3.792 1.548 5.71 0 7.888 0 Z" transform="translate(35.776 44.928) rotate(85 4.88 2.217)" fill="hsl(53, 96%, 74%)"></path>
  <path d="M 9.316 0 C 11.889 0 11.509 3.456 11.509 4.436 C 11.509 6.397 11.174 7.098 6.029 7.098 C 0.883 7.098 0 5.509 0 3.549 C -0 2.569 1.043 1.682 2.729 1.039 C 4.479 2.478 6.744 -0 9.316 0 Z" transform="translate(269.64 61.167) rotate(189 5.764 3.549)" fill="hsl(53, 96%, 74%)"></path>
  <path d="M 9.321 0 C 11.895 0 11.515 3.455 11.515 4.434 C 11.515 6.393 11.18 7.095 6.032 7.094 C 0.884 7.094 0 5.505 0 3.546 C -0 2.567 1.043 1.68 2.73 1.038 C 4.482 2.476 6.747 -0 9.321 0 Z" transform="translate(62.959 115.354) rotate(72 5.767 3.547)" fill="hsl(53, 96%, 74%)"></path>
  <path d="M 9.321 0 C 11.895 0 11.515 3.455 11.515 4.434 C 11.515 6.393 11.18 7.095 6.032 7.094 C 0.884 7.094 0 5.505 0 3.546 C -0 2.567 1.043 1.68 2.73 1.038 C 4.482 2.476 6.747 -0 9.321 0 Z" transform="translate(153.412 17.749) rotate(72 5.767 3.547)" fill="hsl(53, 96%, 74%)"></path>
  <path d="M 2.907 0 C 4.513 0 5.815 -0.005 5.815 1.481 C 5.816 2.967 4.514 3.633 2.908 3.633 C 1.302 3.632 0 2.965 0 1.479 C -0 -0.007 1.301 -0 2.907 0 Z" transform="translate(50.243 72.892) rotate(67 2.908 1.816)" fill="hsl(5, 96%, 75%)"></path>
  <path d="M 2.907 0 C 4.513 0 5.815 -0.005 5.815 1.481 C 5.816 2.967 4.514 3.633 2.908 3.633 C 1.302 3.632 0 2.965 0 1.479 C -0 -0.007 1.301 -0 2.907 0 Z" transform="translate(204.848 63.888) rotate(67 2.908 1.816)" fill="hsl(5, 96%, 75%)"></path>
  <path d="M 2.907 0 C 4.513 0 5.815 -0.005 5.815 1.481 C 5.816 2.967 4.514 3.633 2.908 3.633 C 1.302 3.632 0 2.965 0 1.479 C -0 -0.007 1.301 -0 2.907 0 Z" transform="translate(162.282 53.24) rotate(67 2.908 1.816)" fill="hsl(5, 96%, 75%)"></path>
  <path d="M 3.546 17.112 C 3.546 17.112 2.881 17.746 2.216 17.746 C 1.551 17.746 0.886 17.113 0.886 17.113 L 3.103 13.946 L 0 10.779 L 3.104 7.929 L 0.888 5.079 L 3.105 2.545 L 1.775 1.595 C 1.775 1.595 0.795 0.152 1.332 0.012 C 1.868 -0.128 3.92 1.035 3.978 1.09 C 4.906 1.971 5.765 2.861 5.765 2.861 L 3.548 5.078 L 5.765 8.245 L 2.66 10.779 L 6.207 13.629 Z" transform="translate(65.623 27.507) rotate(168 3.104 8.873)" fill="hsl(305, 100%, 90%)"></path>
  <path d="M 3.55 17.107 C 3.55 17.107 2.885 17.74 2.22 17.739 C 1.554 17.739 0.889 17.106 0.889 17.106 L 3.106 13.941 L 0 10.774 L 3.104 7.926 L 0.886 5.077 L 3.103 2.545 L 1.772 1.595 C 1.772 1.595 0.791 0.151 1.328 0.012 C 1.864 -0.128 3.918 1.036 3.976 1.091 C 4.905 1.971 5.764 2.862 5.764 2.862 L 3.547 5.077 L 5.766 8.243 L 2.661 10.775 L 6.211 13.625 Z" transform="translate(262.49 -0.883) rotate(56 3.105 8.87)" fill="hsl(305, 100%, 90%)"></path>
  <path d="M 3.548 17.969 C 3.548 17.969 2.882 18.634 2.217 18.634 C 1.552 18.634 0.887 17.969 0.887 17.969 L 3.104 14.643 L 0 11.318 L 3.104 8.325 L 0.886 5.333 L 3.103 2.673 L 1.773 1.675 C 1.773 1.675 0.793 0.159 1.33 0.012 C 1.866 -0.135 3.918 1.087 3.976 1.145 C 4.905 2.07 5.764 3.005 5.764 3.005 L 3.547 5.333 L 5.764 8.658 L 2.66 11.318 L 6.208 14.311 Z" transform="translate(186.226 40.817) rotate(185 3.104 9.317)" fill="hsl(305, 100%, 90%)"></path>
  <path d="M 3.55 17.96 C 3.55 17.96 2.885 18.625 2.22 18.625 C 1.554 18.624 0.889 17.96 0.889 17.96 L 3.106 14.636 L 0 11.312 L 3.105 8.322 L 0.886 5.33 L 3.103 2.671 L 1.772 1.674 C 1.772 1.674 0.792 0.159 1.328 0.012 C 1.865 -0.135 3.918 1.087 3.977 1.145 C 4.906 2.069 5.765 3.004 5.765 3.004 L 3.548 5.33 L 5.767 8.655 L 2.662 11.313 L 6.211 14.305 Z" transform="translate(239.433 76.315) rotate(67 3.106 9.312)" fill="hsl(305, 100%, 90%)"></path>
  <path d="M 16.921 3.983 C 16.921 3.983 17.599 3.364 17.645 2.7 C 17.692 2.037 17.106 1.328 17.106 1.328 L 13.794 3.319 L 10.851 0 L 7.793 2.898 L 5.105 0.486 L 2.424 2.52 L 1.569 1.127 C 1.569 1.127 0.197 0.048 0.021 0.573 C -0.156 1.099 0.862 3.228 0.913 3.29 C 1.726 4.278 2.555 5.197 2.555 5.197 L 4.92 3.14 L 7.924 5.574 L 10.666 2.655 L 13.262 6.394 Z" transform="translate(2.746 20.105) rotate(43 8.824 3.197)" fill="hsl(305, 100%, 90%)"></path>
</svg>