<svg xmlns="http://www.w3.org/2000/svg" xmlns:xlink="http://www.w3.org/1999/xlink" width="232" height="149"><path d="M 5 11 C 5 6.582 8.582 3 13 3 L 219 3 C 223.418 3 227 6.582 227 11 L 227 134 C 227 138.418 223.418 142 219 142 L 13 142 C 8.582 142 5 138.418 5 134 Z" fill="#CCC"></path><g><defs><path d="M 5 11 C 5 6.582 8.582 3 13 3 L 219 3 C 223.418 3 227 6.582 227 11 L 227 134 C 227 138.418 223.418 142 219 142 L 13 142 C 8.582 142 5 138.418 5 134 Z" id="a2527z"></path><filter id="a2529z" x="-4.7%" y="-9.0%" width="109.4%" height="117.9%" filterUnits="objectBoundingBox"><feOffset dx="0" dy="2" in="SourceAlpha" result="a2531z"></feOffset><feGaussianBlur stdDeviation="2.5" in="a2531z" result="a2532z"></feGaussianBlur><feColorMatrix color-interpolation-filters="sRGB" values="0 0 0 0 0.867   0 0 0 0 0.867   0 0 0 0 0.867  0 0 0 1 0" type="matrix" in="a2532z" result="a2533z"></feColorMatrix></filter></defs><g filter="url(#a2529z)"><use fill="black" fill-opacity="1" stroke="black" stroke-opacity="0" stroke-width="0" xlink:href="#a2527z" clip-path="url(#a2528z)"></use></g><use xlink:href="#a2527z" fill="#A8E5FF" clip-path="url(#a2528z)"></use></g><path d="M 20 22.04 C 20 20.085 21.585 18.5 23.54 18.5 L 36.46 18.5 C 38.415 18.5 40 20.085 40 22.04 L 40 34.96 C 40 36.915 38.415 38.5 36.46 38.5 L 23.54 38.5 C 21.585 38.5 20 36.915 20 34.96 Z" fill="hsl(53, 100%, 86%)"></path><path d="M 162 113.04 C 162 111.085 163.585 109.5 165.54 109.5 L 208.46 109.5 C 210.415 109.5 212 111.085 212 113.04 L 212 125.96 C 212 127.915 210.415 129.5 208.46 129.5 L 165.54 129.5 C 163.585 129.5 162 127.915 162 125.96 Z" fill="#DDDDDD"></path><g transform="translate(20 66)"><path d="M 0 1.77 C 0 0.792 0.792 0 1.77 0 L 8.23 0 C 9.208 0 10 0.792 10 1.77 L 10 11.23 C 10 12.208 9.208 13 8.23 13 L 1.77 13 C 0.792 13 0 12.208 0 11.23 Z" fill="#EDEDED"></path><path d="M 50 1.77 C 50 0.792 50.792 0 51.77 0 L 58.23 0 C 59.208 0 60 0.792 60 1.77 L 60 11.23 C 60 12.208 59.208 13 58.23 13 L 51.77 13 C 50.792 13 50 12.208 50 11.23 Z" fill="#EDEDED"></path><path d="M 99 1.77 C 99 0.792 99.792 0 100.77 0 L 107.23 0 C 108.208 0 109 0.792 109 1.77 L 109 11.23 C 109 12.208 108.208 13 107.23 13 L 100.77 13 C 99.792 13 99 12.208 99 11.23 Z" fill="#EDEDED"></path><path d="M 149 1.77 C 149 0.792 149.792 0 150.77 0 L 157.23 0 C 158.208 0 159 0.792 159 1.77 L 159 11.23 C 159 12.208 158.208 13 157.23 13 L 150.77 13 C 149.792 13 149 12.208 149 11.23 Z" fill="#EDEDED"></path><path d="M 11 1.77 C 11 0.792 11.792 0 12.77 0 L 19.23 0 C 20.208 0 21 0.792 21 1.77 L 21 11.23 C 21 12.208 20.208 13 19.23 13 L 12.77 13 C 11.792 13 11 12.208 11 11.23 Z" fill="#EDEDED"></path><path d="M 61 1.77 C 61 0.792 61.792 0 62.77 0 L 69.23 0 C 70.208 0 71 0.792 71 1.77 L 71 11.23 C 71 12.208 70.208 13 69.23 13 L 62.77 13 C 61.792 13 61 12.208 61 11.23 Z" fill="#EDEDED"></path><path d="M 110 1.77 C 110 0.792 110.792 0 111.77 0 L 118.23 0 C 119.208 0 120 0.792 120 1.77 L 120 11.23 C 120 12.208 119.208 13 118.23 13 L 111.77 13 C 110.792 13 110 12.208 110 11.23 Z" fill="#EDEDED"></path><path d="M 160 1.77 C 160 0.792 160.792 0 161.77 0 L 168.23 0 C 169.208 0 170 0.792 170 1.77 L 170 11.23 C 170 12.208 169.208 13 168.23 13 L 161.77 13 C 160.792 13 160 12.208 160 11.23 Z" fill="#EDEDED"></path><path d="M 22 1.77 C 22 0.792 22.792 0 23.77 0 L 30.23 0 C 31.208 0 32 0.792 32 1.77 L 32 11.23 C 32 12.208 31.208 13 30.23 13 L 23.77 13 C 22.792 13 22 12.208 22 11.23 Z" fill="#EDEDED"></path><path d="M 72 1.77 C 72 0.792 72.792 0 73.77 0 L 80.23 0 C 81.208 0 82 0.792 82 1.77 L 82 11.23 C 82 12.208 81.208 13 80.23 13 L 73.77 13 C 72.792 13 72 12.208 72 11.23 Z" fill="#EDEDED"></path><path d="M 121 1.77 C 121 0.792 121.792 0 122.77 0 L 129.23 0 C 130.208 0 131 0.792 131 1.77 L 131 11.23 C 131 12.208 130.208 13 129.23 13 L 122.77 13 C 121.792 13 121 12.208 121 11.23 Z" fill="#EDEDED"></path><path d="M 171 1.77 C 171 0.792 171.792 0 172.77 0 L 179.23 0 C 180.208 0 181 0.792 181 1.77 L 181 11.23 C 181 12.208 180.208 13 179.23 13 L 172.77 13 C 171.792 13 171 12.208 171 11.23 Z" fill="#EDEDED"></path><path d="M 33 1.77 C 33 0.792 33.792 0 34.77 0 L 41.23 0 C 42.208 0 43 0.792 43 1.77 L 43 11.23 C 43 12.208 42.208 13 41.23 13 L 34.77 13 C 33.792 13 33 12.208 33 11.23 Z" fill="#EDEDED"></path><path d="M 83 1.77 C 83 0.792 83.792 0 84.77 0 L 91.23 0 C 92.208 0 93 0.792 93 1.77 L 93 11.23 C 93 12.208 92.208 13 91.23 13 L 84.77 13 C 83.792 13 83 12.208 83 11.23 Z" fill="#EDEDED"></path><path d="M 132 1.77 C 132 0.792 132.792 0 133.77 0 L 140.23 0 C 141.208 0 142 0.792 142 1.77 L 142 11.23 C 142 12.208 141.208 13 140.23 13 L 133.77 13 C 132.792 13 132 12.208 132 11.23 Z" fill="#EDEDED"></path><path d="M 182 1.77 C 182 0.792 182.792 0 183.77 0 L 190.23 0 C 191.208 0 192 0.792 192 1.77 L 192 11.23 C 192 12.208 191.208 13 190.23 13 L 183.77 13 C 182.792 13 182 12.208 182 11.23 Z" fill="#EDEDED"></path></g><path d="M 125 26 C 125 24.895 125.895 24 127 24 L 210 24 C 211.105 24 212 24.895 212 26 L 212 26 C 212 27.105 211.105 28 210 28 L 127 28 C 125.895 28 125 27.105 125 26 Z" fill="#BBBBBB"></path></svg>