<!-- Graphic -->
<svg xmlns="http://www.w3.org/2000/svg" width="202" height="143">
  <path d="M 101 105.67 C 156.781 105.67 202 113.959 202 124.184 C 202 134.409 156.781 142.698 101 142.698 C 45.219 142.698 0 134.409 0 124.184 C 0 113.959 45.219 105.67 101 105.67 Z" fill="#E0F6FF"></path>
  <g transform="translate(49.671 0.285)">
    <g transform="translate(6.314 50.218)">
      <path d="M 81.861 6.058 C 77.964 2.179 72.678 0 67.166 0 C 64.41 0 57.639 0.59 55.141 1.62 C 52.644 2.65 54.419 4.118 52.471 6.058 L 48.467 10.041 L 44.462 6.058 C 40.404 2.021 35.086 0.002 29.767 0.002 C 27.108 0.002 19.729 0.611 17.228 1.62 C 14.726 2.629 17.101 4.039 15.072 6.058 C 6.956 14.132 6.956 27.223 15.072 35.297 L 19.077 39.281 L 33.812 54.874 L 41.18 62.671 L 39.481 70.467 L 51.845 70.467 L 84.813 37.259 C 84.813 37.259 87.326 34.239 88.11 30.779 C 88.894 27.319 88.934 23.801 88.934 21.059 C 88.934 15.575 85.76 9.934 81.861 6.058 Z" fill="#FA94B1" stroke-width="5.83" stroke="hsl(343, 91%, 78%)" stroke-linecap="round" stroke-linejoin="round"></path>
      <path d="M 72.876 7.865 C 68.979 3.987 63.693 1.807 58.181 1.807 C 52.669 1.807 47.382 3.987 43.486 7.865 L 39.481 11.849 L 35.477 7.865 C 27.361 -0.209 14.203 -0.209 6.087 7.865 C -2.029 15.939 -2.029 29.03 6.087 37.104 L 10.091 41.088 L 39.481 70.328 L 68.871 41.088 L 72.876 37.104 C 76.774 33.228 78.965 27.969 78.965 22.485 C 78.965 17.001 76.774 11.742 72.876 7.865 Z" fill="hsl(343, 93%, 85%)" stroke-width="5.83" stroke="#FCB5C9" stroke-linecap="round" stroke-linejoin="round"></path>
    </g>
    <g transform="translate(46.62 0)">
      <path d="M 4.671 0 L 8.792 0 L 8.792 0 C 11.068 0 12.913 1.845 12.913 4.121 L 12.913 21.599 C 12.913 23.985 10.979 25.919 8.593 25.919 L 4.671 25.919 Z" fill="#FA94B1"></path>
      <path d="M 0 4.121 C 0 1.845 1.845 0 4.121 0 L 4.121 0 C 6.397 0 8.242 1.845 8.242 4.121 L 8.242 21.798 C 8.242 24.074 6.397 25.919 4.121 25.919 L 4.121 25.919 C 1.845 25.919 0 24.074 0 21.798 Z" fill="#FCB5C9"></path>
    </g>
    <g transform="translate(87.155 15.071) rotate(45 6.459 12.975)">
      <path d="M 4.688 0.004 L 8.805 0 L 8.805 0 C 11.077 -0.002 12.92 1.84 12.918 4.113 L 12.901 21.617 C 12.898 24.006 10.962 25.943 8.572 25.945 L 4.662 25.949 Z" fill="#FA94B1"></path>
      <path d="M 0.018 4.126 C 0.02 1.851 1.864 0.007 4.139 0.005 L 4.139 0.005 C 6.411 0.002 8.254 1.845 8.252 4.118 L 8.234 21.828 C 8.232 24.103 6.388 25.947 4.113 25.949 L 4.113 25.949 C 1.84 25.952 -0.002 24.109 0 21.837 Z" fill="#FCB5C9"></path>
    </g>
    <g transform="translate(5.579 15.071) rotate(-45 6.459 12.975)">
      <path d="M 4.662 0.001 L 8.779 0.005 L 8.779 0.005 C 11.054 0.007 12.898 1.851 12.9 4.126 L 12.918 21.629 C 12.92 24.016 10.985 25.952 8.598 25.949 L 4.688 25.945 Z" fill="#FA94B1"></path>
      <path d="M 0 4.113 C -0.002 1.84 1.84 -0.002 4.113 0 L 4.113 0 C 6.388 0.002 8.232 1.846 8.234 4.121 L 8.252 21.832 C 8.254 24.104 6.411 25.947 4.139 25.945 L 4.139 25.945 C 1.864 25.943 0.02 24.099 0.018 21.824 Z" fill="#FCB5C9"></path>
    </g></g>
</svg>