<svg xmlns="http://www.w3.org/2000/svg" width="123" height="119">
  <g transform="translate(0.916 0.84)">
    <path d="M 1.576 33.092 C 1.102 31.546 1.972 29.909 3.519 29.438 L 44.795 16.873 C 46.344 16.401 47.983 17.273 48.458 18.821 L 48.458 18.821 C 48.932 20.366 48.062 22.004 46.515 22.474 L 5.239 35.039 C 3.69 35.511 2.052 34.64 1.576 33.092 Z" fill="#64ED64"></path>
    <path d="M 51.58 108.262 C 51.106 106.716 51.976 105.079 53.523 104.608 L 94.799 92.043 C 96.348 91.572 97.987 92.443 98.462 93.991 L 98.462 93.991 C 98.937 95.536 98.066 97.174 96.519 97.645 L 55.243 110.209 C 53.694 110.681 52.056 109.81 51.58 108.262 Z" fill="#64ED64"></path>
    <path d="M 51.58 36.02 C 51.106 34.475 51.976 32.837 53.523 32.366 L 117.302 12.952 C 118.851 12.48 120.49 13.351 120.965 14.899 L 120.965 14.899 C 121.44 16.445 120.569 18.082 119.022 18.553 L 55.243 37.968 C 53.694 38.439 52.056 37.568 51.58 36.02 Z" fill="#64ED64"></path>
    <path d="M 0.13 105.829 C -0.345 104.284 0.526 102.646 2.072 102.176 L 58.35 85.044 C 59.899 84.572 61.538 85.444 62.013 86.992 L 62.013 86.992 C 62.488 88.537 61.617 90.175 60.07 90.645 L 3.792 107.777 C 2.243 108.249 0.605 107.377 0.13 105.829 Z" fill="#64ED64"></path>
    <path d="M 74.131 10.638 C 73.657 9.093 74.527 7.455 76.074 6.984 L 98.597 0.128 C 100.146 -0.343 101.785 0.528 102.26 2.076 L 102.26 2.076 C 102.735 3.621 101.864 5.259 100.317 5.73 L 77.794 12.586 C 76.245 13.057 74.607 12.186 74.131 10.638 Z" fill="#64ED64"></path>
    <path d="M 87.429 79.049 C 86.955 77.504 87.825 75.866 89.372 75.395 L 111.896 68.539 C 113.445 68.067 115.083 68.939 115.558 70.487 L 115.558 70.487 C 116.033 72.032 115.162 73.67 113.616 74.14 L 91.092 80.997 C 89.543 81.468 87.905 80.597 87.429 79.049 Z" fill="#64ED64"></path>
    <path d="M 53.541 17.472 C 53.067 15.926 53.937 14.289 55.484 13.818 L 63.943 11.243 C 65.492 10.772 67.131 11.643 67.606 13.191 L 67.606 13.191 C 68.08 14.736 67.21 16.374 65.663 16.845 L 57.204 19.419 C 55.655 19.891 54.017 19.02 53.541 17.472 Z" fill="#64ED64"></path>
    <path d="M 67.499 85.695 C 67.024 84.149 67.895 82.512 69.442 82.041 L 77.9 79.466 C 79.449 78.994 81.088 79.865 81.563 81.413 L 81.563 81.413 C 82.038 82.959 81.167 84.596 79.62 85.067 L 71.162 87.642 C 69.612 88.114 67.974 87.243 67.499 85.695 Z" fill="#64ED64"></path>
    <path d="M 30.241 114.982 C 29.766 113.436 30.637 111.799 32.184 111.328 L 40.642 108.753 C 42.191 108.281 43.83 109.152 44.305 110.7 L 44.305 110.7 C 44.78 112.246 43.909 113.883 42.362 114.354 L 33.904 116.929 C 32.355 117.401 30.716 116.53 30.241 114.982 Z" fill="#64ED64"></path>
    <path d="M 31.221 42.74 C 30.747 41.195 31.617 39.557 33.164 39.086 L 41.623 36.511 C 43.172 36.04 44.81 36.911 45.286 38.459 L 45.286 38.459 C 45.76 40.005 44.89 41.642 43.343 42.113 L 34.884 44.688 C 33.335 45.159 31.697 44.288 31.221 42.74 Z" fill="#64ED64"></path>
  </g>
</svg>