<!-- Graphic -->
<svg xmlns="http://www.w3.org/2000/svg" width="390" height="236">
  <path d="M 0 2 L 5.5 1.5 L 10.5 0 C 10.5 0 10.125 1.375 10.5 2.5 C 10.875 3.625 12 4.5 12 4.5 C 12 4.5 9.25 4.375 6.5 5 C 3.75 5.625 1 7 1 7 C 1 7 1.25 5.75 1 4.5 C 0.75 3.25 0 2 0 2 Z" transform="translate(67.5 84) rotate(-114 6 3.5)" fill="hsl(202, 100%, 84%)"></path>
  <path d="M 0 2 L 5.5 1.5 L 10.5 0 C 10.5 0 10.125 1.375 10.5 2.5 C 10.875 3.625 12 4.5 12 4.5 C 12 4.5 9.25 4.375 6.5 5 C 3.75 5.625 1 7 1 7 C 1 7 1.25 5.75 1 4.5 C 0.75 3.25 0 2 0 2 Z" transform="translate(241 199) rotate(-183 6 3.5)" fill="hsl(202, 100%, 84%)"></path>
  <path d="M 0 2 L 5.5 1.5 L 10.5 0 C 10.5 0 10.125 1.375 10.5 2.5 C 10.875 3.625 12 4.5 12 4.5 C 12 4.5 9.25 4.375 6.5 5 C 3.75 5.625 1 7 1 7 C 1 7 1.25 5.75 1 4.5 C 0.75 3.25 0 2 0 2 Z" transform="translate(212 166) rotate(-114 6 3.5)" fill="hsl(202, 100%, 84%)"></path>
  <path d="M 0 2 L 5.5 1.5 L 10.5 0 C 10.5 0 10.125 1.375 10.5 2.5 C 10.875 3.625 12 4.5 12 4.5 C 12 4.5 9.25 4.375 6.5 5 C 3.75 5.625 1 7 1 7 C 1 7 1.25 5.75 1 4.5 C 0.75 3.25 0 2 0 2 Z" transform="translate(213 77) rotate(-77 6 3.5)" fill="hsl(202, 100%, 84%)"></path>
  <path d="M 0 2 L 5.5 1.5 L 10.5 0 C 10.5 0 10.125 1.375 10.5 2.5 C 10.875 3.625 12 4.5 12 4.5 C 12 4.5 9.25 4.375 6.5 5 C 3.75 5.625 1 7 1 7 C 1 7 1.25 5.75 1 4.5 C 0.75 3.25 0 2 0 2 Z" transform="translate(308 143) rotate(-79 6 3.5)" fill="hsl(202, 100%, 84%)"></path>
  <path d="M 0 2 L 5.5 1.5 L 10.5 0 C 10.5 0 10.125 1.375 10.5 2.5 C 10.875 3.625 12 4.5 12 4.5 C 12 4.5 9.25 4.375 6.5 5 C 3.75 5.625 1 7 1 7 C 1 7 1.25 5.75 1 4.5 C 0.75 3.25 0 2 0 2 Z" transform="translate(292 92) rotate(-31 6 3.5)" fill="hsl(202, 100%, 84%)"></path>
  <path d="M 0 2 L 5.5 1.5 L 10.5 0 C 10.5 0 10.125 1.375 10.5 2.5 C 10.875 3.625 12 4.5 12 4.5 C 12 4.5 9.25 4.375 6.5 5 C 3.75 5.625 1 7 1 7 C 1 7 1.25 5.75 1 4.5 C 0.75 3.25 0 2 0 2 Z" transform="translate(311 84) rotate(-41 6 3.5)" fill="hsl(16, 100%, 81%)"></path>
  <path d="M 0 2 L 5.5 1.5 L 10.5 0 C 10.5 0 10.125 1.375 10.5 2.5 C 10.875 3.625 12 4.5 12 4.5 C 12 4.5 9.25 4.375 6.5 5 C 3.75 5.625 1 7 1 7 C 1 7 1.25 5.75 1 4.5 C 0.75 3.25 0 2 0 2 Z" transform="translate(105 143) rotate(-41 6 3.5)" fill="hsl(16, 100%, 81%)"></path>
  <path d="M 0 2 L 5.5 1.5 L 10.5 0 C 10.5 0 10.125 1.375 10.5 2.5 C 10.875 3.625 12 4.5 12 4.5 C 12 4.5 9.25 4.375 6.5 5 C 3.75 5.625 1 7 1 7 C 1 7 1.25 5.75 1 4.5 C 0.75 3.25 0 2 0 2 Z" transform="translate(218 98) rotate(-41 6 3.5)" fill="hsl(16, 100%, 81%)"></path>
  <path d="M 0 2 L 5.5 1.5 L 10.5 0 C 10.5 0 10.125 1.375 10.5 2.5 C 10.875 3.625 12 4.5 12 4.5 C 12 4.5 9.25 4.375 6.5 5 C 3.75 5.625 1 7 1 7 C 1 7 1.25 5.75 1 4.5 C 0.75 3.25 0 2 0 2 Z" transform="translate(247 38) rotate(-173 6 3.5)" fill="hsl(16, 100%, 81%)"></path>
  <path d="M 0 2 L 5.5 1.5 L 10.5 0 C 10.5 0 10.125 1.375 10.5 2.5 C 10.875 3.625 12 4.5 12 4.5 C 12 4.5 9.25 4.375 6.5 5 C 3.75 5.625 1 7 1 7 C 1 7 1.25 5.75 1 4.5 C 0.75 3.25 0 2 0 2 Z" transform="translate(148 210) rotate(-124 6 3.5)" fill="hsl(16, 100%, 81%)"></path>
  <path d="M 0 2 L 5.5 1.5 L 10.5 0 C 10.5 0 10.125 1.375 10.5 2.5 C 10.875 3.625 12 4.5 12 4.5 C 12 4.5 9.25 4.375 6.5 5 C 3.75 5.625 1 7 1 7 C 1 7 1.25 5.75 1 4.5 C 0.75 3.25 0 2 0 2 Z" transform="translate(162 84) rotate(-46 6 3.5)" fill="hsl(16, 100%, 81%)"></path>
  <path d="M 0 2 L 5.5 1.5 L 10.5 0 C 10.5 0 10.125 1.375 10.5 2.5 C 10.875 3.625 12 4.5 12 4.5 C 12 4.5 9.25 4.375 6.5 5 C 3.75 5.625 1 7 1 7 C 1 7 1.25 5.75 1 4.5 C 0.75 3.25 0 2 0 2 Z" transform="translate(89 90) rotate(20 6 3.5)" fill="hsl(16, 100%, 81%)"></path>
  <path d="M 5.686 0.142 C 7.816 -0.469 8.749 1.057 8.882 1.606 C 9.148 2.705 8.882 3.559 8.882 3.559 C 8.882 3.559 6.929 3.437 4.976 4.047 C 3.023 4.657 1.07 6 1.07 6 C 1.07 6 0.183 4.291 0.005 3.071 C -0.083 2.461 0.959 3.086 2.136 2.583 C 3.312 2.079 4.621 0.447 5.686 0.142 Z" transform="translate(199.762 55.675) rotate(108 4.5 3)" fill="hsl(257, 100%, 86%)"></path>
  <path d="M 5.686 0.142 C 7.816 -0.469 8.749 1.057 8.882 1.606 C 9.148 2.705 8.882 3.559 8.882 3.559 C 8.882 3.559 6.929 3.437 4.976 4.047 C 3.023 4.657 1.07 6 1.07 6 C 1.07 6 0.183 4.291 0.005 3.071 C -0.083 2.461 0.959 3.086 2.136 2.583 C 3.312 2.079 4.621 0.447 5.686 0.142 Z" transform="translate(196 130) rotate(108 4.5 3)" fill="hsl(257, 100%, 86%)"></path>
  <path d="M 8.007 0.145 C 11.007 -0.48 12.32 1.083 12.507 1.645 C 12.882 2.77 12.507 3.645 12.507 3.645 C 12.507 3.645 9.757 3.52 7.007 4.145 C 4.257 4.77 1.507 6.145 1.507 6.145 C 1.507 6.145 0.257 4.395 0.007 3.145 C -0.118 2.52 1.351 3.161 3.007 2.645 C 4.664 2.129 6.507 0.458 8.007 0.145 Z" transform="translate(99 201) rotate(64 6.337 3.073)" fill="hsl(257, 100%, 86%)"></path>
  <path d="M 8.007 0.145 C 11.007 -0.48 12.32 1.083 12.507 1.645 C 12.882 2.77 12.507 3.645 12.507 3.645 C 12.507 3.645 9.757 3.52 7.007 4.145 C 4.257 4.77 1.507 6.145 1.507 6.145 C 1.507 6.145 0.257 4.395 0.007 3.145 C -0.118 2.52 1.351 3.161 3.007 2.645 C 4.664 2.129 6.507 0.458 8.007 0.145 Z" transform="translate(61 116) rotate(64 6.337 3.073)" fill="hsl(257, 100%, 86%)"></path>
  <path d="M 8.007 0.145 C 11.007 -0.48 12.32 1.083 12.507 1.645 C 12.882 2.77 12.507 3.645 12.507 3.645 C 12.507 3.645 9.757 3.52 7.007 4.145 C 4.257 4.77 1.507 6.145 1.507 6.145 C 1.507 6.145 0.257 4.395 0.007 3.145 C -0.118 2.52 1.351 3.161 3.007 2.645 C 4.664 2.129 6.507 0.458 8.007 0.145 Z" transform="translate(273 156) rotate(147 6.337 3.073)" fill="hsl(257, 100%, 86%)"></path>
  <path d="M 126.5 72.5 C 128.847 72.5 128.5 74.448 128.5 75 C 128.5 76.105 128.194 76.5 123.5 76.5 C 118.806 76.5 118 75.605 118 74.5 C 118 73.948 118.951 73.448 120.49 73.086 C 122.087 73.896 124.153 72.5 126.5 72.5 Z" fill="hsl(203, 76%, 63%)"></path>
  <path d="M 8.5 0 C 10.847 0 10.5 1.948 10.5 2.5 C 10.5 3.605 10.194 4 5.5 4 C 0.806 4 0 3.105 0 2 C 0 1.448 0.951 0.948 2.49 0.586 C 4.087 1.396 6.153 0 8.5 0 Z" transform="translate(281 180) rotate(80 5.259 2)" fill="hsl(203, 76%, 63%)"></path>
  <path d="M 8.5 0 C 10.847 0 10.5 1.948 10.5 2.5 C 10.5 3.605 10.194 4 5.5 4 C 0.806 4 0 3.105 0 2 C 0 1.448 0.951 0.948 2.49 0.586 C 3.288 0.991 5.214 0.597 5.214 0.597 C 5.214 0.597 7.326 0 8.5 0 Z" transform="translate(270 66) rotate(106 5.259 2)" fill="hsl(53, 96%, 74%)"></path>
  <path d="M 8.5 0 C 10.847 0 10.5 1.948 10.5 2.5 C 10.5 3.605 10.194 4 5.5 4 C 0.806 4 0 3.105 0 2 C 0 1.448 0.951 0.948 2.49 0.586 C 3.288 0.991 5.214 0.597 5.214 0.597 C 5.214 0.597 7.326 0 8.5 0 Z" transform="translate(165 38) rotate(137 5.259 2)" fill="hsl(53, 96%, 74%)"></path>
  <path d="M 8.5 0 C 10.847 0 10.5 1.948 10.5 2.5 C 10.5 3.605 10.194 4 5.5 4 C 0.806 4 0 3.105 0 2 C 0 1.448 0.951 0.948 2.49 0.586 C 4.087 1.396 6.153 0 8.5 0 Z" transform="translate(115 173) rotate(82 5.259 2)" fill="hsl(53, 96%, 74%)"></path>
  <path d="M 8.5 0 C 10.847 0 10.5 1.948 10.5 2.5 C 10.5 3.605 10.194 4 5.5 4 C 0.806 4 0 3.105 0 2 C 0 1.448 0.951 0.948 2.49 0.586 C 4.087 1.396 6.153 0 8.5 0 Z" transform="translate(130 113) rotate(59 5.259 2)" fill="hsl(53, 96%, 74%)"></path>
  <path d="M 242 180 C 244 179 250 180 250 180 C 250 180 249 181 249 182 C 249 182.5 249.375 183 249 183.5 C 248.625 184 247.5 184.5 247.5 184.5 L 242 184 C 242 184 240 181 242 180 Z" fill="hsl(343, 100%, 82%)"></path>
  <path d="M 73.889 169.444 C 75.889 168.444 81.889 169.444 81.889 169.444 C 81.889 169.444 80.889 170.444 80.889 171.444 C 80.889 171.944 81.264 172.444 80.889 172.944 C 80.514 173.444 79.389 173.944 79.389 173.944 L 73.889 173.444 C 73.889 173.444 71.889 170.444 73.889 169.444 Z" fill="hsl(343, 100%, 82%)"></path>
  <path d="M 153.889 169.444 C 155.889 168.444 161.889 169.444 161.889 169.444 C 161.889 169.444 160.889 170.444 160.889 171.444 C 160.889 171.944 161.264 172.444 160.889 172.944 C 160.514 173.444 159.389 173.944 159.389 173.944 L 153.889 173.444 C 153.889 173.444 151.889 170.444 153.889 169.444 Z" fill="hsl(343, 100%, 82%)"></path>
  <path d="M 0.889 0.444 C 2.889 -0.556 8.889 0.444 8.889 0.444 C 8.889 0.444 7.889 1.444 7.889 2.444 C 7.889 2.944 8.264 3.444 7.889 3.944 C 7.514 4.444 6.389 4.944 6.389 4.944 L 0.889 4.444 C 0.889 4.444 -1.111 1.444 0.889 0.444 Z" transform="translate(334 118) rotate(-61 4.444 2.472)" fill="hsl(343, 100%, 82%)"></path>
  <path d="M 0.889 0.444 C 2.889 -0.556 8.889 0.444 8.889 0.444 C 8.889 0.444 7.889 1.444 7.889 2.444 C 7.889 2.944 8.264 3.444 7.889 3.944 C 7.514 4.444 6.389 4.944 6.389 4.944 L 0.889 4.444 C 0.889 4.444 -1.111 1.444 0.889 0.444 Z" transform="translate(130 44) rotate(-61 4.444 2.472)" fill="hsl(343, 100%, 82%)"></path>
  <path d="M 278 200 C 279.657 200 281 199.994 281 201.528 C 281 203.062 279.657 203.75 278 203.75 C 276.343 203.75 275 203.062 275 201.528 C 275 199.994 276.343 200 278 200 Z" fill="hsl(5, 96%, 75%)"></path>
  <path d="M 176 111 C 177.657 111 179 110.994 179 112.528 C 179 114.062 177.657 114.75 176 114.75 C 174.343 114.75 173 114.062 173 112.528 C 173 110.994 174.343 111 176 111 Z" fill="hsl(5, 96%, 75%)"></path>
  <path d="M 300 129 C 301.657 129 303 128.994 303 130.528 C 303 132.062 301.657 132.75 300 132.75 C 298.343 132.75 297 132.062 297 130.528 C 297 128.994 298.343 129 300 129 Z" fill="hsl(5, 96%, 75%)"></path>
  <path d="M 3 0 C 4.657 0 6 -0.006 6 1.528 C 6 3.062 4.657 3.75 3 3.75 C 1.343 3.75 0 3.062 0 1.528 C 0 -0.006 1.343 0 3 0 Z" transform="translate(79 136) rotate(67 3 1.875)" fill="hsl(5, 96%, 75%)"></path>
  <path d="M 205 45.324 C 205 43.488 206.486 42 208.32 42 C 210.154 42 211.64 43.488 211.64 45.324 C 211.64 47.16 210.154 48.649 208.32 48.649 C 206.486 48.649 205 47.16 205 45.324 Z" fill="rgb(245,95,68)" opacity="0.5"></path>
  <path d="M 284 86.324 C 284 84.488 285.486 83 287.32 83 C 289.154 83 290.64 84.488 290.64 86.324 C 290.64 88.16 289.154 89.649 287.32 89.649 C 285.486 89.649 284 88.16 284 86.324 Z" fill="rgb(71,230,177)" opacity="0.5"></path>
  <path d="M 90 62.324 C 90 60.488 91.486 59 93.32 59 C 95.154 59 96.64 60.488 96.64 62.324 C 96.64 64.16 95.154 65.649 93.32 65.649 C 91.486 65.649 90 64.16 90 62.324 Z" fill="rgb(71,230,177)" opacity="0.5"></path>
  <path d="M 179 166.324 C 179 164.488 180.486 163 182.32 163 C 184.154 163 185.64 164.488 185.64 166.324 C 185.64 168.16 184.154 169.649 182.32 169.649 C 180.486 169.649 179 168.16 179 166.324 Z" fill="rgb(71,230,177)" opacity="0.5"></path>
  <path d="M 342 384.324 C 342 382.488 343.486 381 345.32 381 C 347.154 381 348.64 382.488 348.64 384.324 C 348.64 386.16 347.154 387.649 345.32 387.649 C 343.486 387.649 342 386.16 342 384.324 Z" fill="rgb(71,230,177)" opacity="0.5"></path>
</svg>